<mxfile host="app.diagrams.net" modified="2024-03-04T19:09:06.055Z" agent="Mozilla/5.0 (Windows NT 10.0; Win64; x64) AppleWebKit/537.36 (KHTML, like Gecko) Chrome/122.0.0.0 Safari/537.36" etag="amMJ_w3QatQuMEa-m4Tc" version="23.0.2" type="github">
  <diagram id="R2lEEEUBdFMjLlhIrx00" name="Page-1">
    <mxGraphModel dx="1217" dy="623" grid="1" gridSize="10" guides="1" tooltips="1" connect="1" arrows="1" fold="1" page="1" pageScale="1" pageWidth="850" pageHeight="1100" math="0" shadow="0" extFonts="Permanent Marker^https://fonts.googleapis.com/css?family=Permanent+Marker">
      <root>
        <mxCell id="0" />
        <mxCell id="1" parent="0" />
        <mxCell id="m994420aG1mh06NTiCLv-1" style="edgeStyle=none;curved=1;rounded=0;orthogonalLoop=1;jettySize=auto;html=1;exitX=0;exitY=0;exitDx=0;exitDy=0;fontSize=12;startSize=8;endSize=8;" edge="1" parent="1">
          <mxGeometry relative="1" as="geometry">
            <mxPoint x="100" y="72" as="sourcePoint" />
            <mxPoint x="100" y="72" as="targetPoint" />
          </mxGeometry>
        </mxCell>
        <mxCell id="m994420aG1mh06NTiCLv-20" value="Customer" style="swimlane;childLayout=stackLayout;horizontal=1;startSize=30;horizontalStack=0;rounded=1;fontSize=14;fontStyle=0;strokeWidth=2;resizeParent=0;resizeLast=1;shadow=0;dashed=0;align=center;arcSize=4;whiteSpace=wrap;html=1;" vertex="1" parent="1">
          <mxGeometry x="100" y="110" width="160" height="160" as="geometry" />
        </mxCell>
        <mxCell id="m994420aG1mh06NTiCLv-21" value="id&amp;nbsp; &amp;nbsp; &amp;nbsp; &amp;nbsp; &amp;nbsp; &amp;nbsp; &amp;nbsp; &amp;nbsp; &amp;nbsp; &amp;nbsp; &amp;nbsp; &amp;nbsp; &amp;nbsp;Required&lt;br&gt;email&amp;nbsp; &amp;nbsp; &amp;nbsp; &amp;nbsp; &amp;nbsp; &amp;nbsp; &amp;nbsp; &amp;nbsp; &amp;nbsp; &amp;nbsp;Required&lt;br&gt;password&amp;nbsp; &amp;nbsp; &amp;nbsp; &amp;nbsp; &amp;nbsp; &amp;nbsp; Required&lt;br&gt;name&amp;nbsp; &amp;nbsp; &amp;nbsp; &amp;nbsp; &amp;nbsp; &amp;nbsp; &amp;nbsp; &amp;nbsp; &amp;nbsp; &amp;nbsp;Required&lt;br&gt;country&amp;nbsp; &amp;nbsp; &amp;nbsp; &amp;nbsp; &amp;nbsp; &amp;nbsp; &amp;nbsp; &amp;nbsp; Required&lt;br&gt;address&amp;nbsp; &amp;nbsp; &amp;nbsp; &amp;nbsp; &amp;nbsp; &amp;nbsp; &amp;nbsp; &amp;nbsp;Required&lt;br&gt;cart_items&amp;nbsp; &amp;nbsp; &amp;nbsp; &amp;nbsp; &amp;nbsp; &amp;nbsp;Set&lt;br&gt;orders&amp;nbsp; &amp;nbsp; &amp;nbsp; &amp;nbsp; &amp;nbsp; &amp;nbsp; &amp;nbsp; &amp;nbsp; &amp;nbsp;Set" style="align=left;strokeColor=none;fillColor=none;spacingLeft=4;fontSize=12;verticalAlign=top;resizable=0;rotatable=0;part=1;html=1;" vertex="1" parent="m994420aG1mh06NTiCLv-20">
          <mxGeometry y="30" width="160" height="130" as="geometry" />
        </mxCell>
        <mxCell id="m994420aG1mh06NTiCLv-25" style="edgeStyle=none;curved=1;rounded=0;orthogonalLoop=1;jettySize=auto;html=1;exitX=0.75;exitY=1;exitDx=0;exitDy=0;fontSize=12;startSize=8;endSize=8;" edge="1" parent="m994420aG1mh06NTiCLv-20" source="m994420aG1mh06NTiCLv-21" target="m994420aG1mh06NTiCLv-21">
          <mxGeometry relative="1" as="geometry" />
        </mxCell>
        <mxCell id="m994420aG1mh06NTiCLv-26" style="edgeStyle=none;curved=1;rounded=0;orthogonalLoop=1;jettySize=auto;html=1;exitX=0.5;exitY=1;exitDx=0;exitDy=0;fontSize=12;startSize=8;endSize=8;" edge="1" parent="m994420aG1mh06NTiCLv-20" source="m994420aG1mh06NTiCLv-21" target="m994420aG1mh06NTiCLv-21">
          <mxGeometry relative="1" as="geometry" />
        </mxCell>
        <mxCell id="m994420aG1mh06NTiCLv-35" value="Order" style="swimlane;childLayout=stackLayout;horizontal=1;startSize=45;horizontalStack=0;rounded=1;fontSize=14;fontStyle=0;strokeWidth=2;resizeParent=0;resizeLast=1;shadow=0;dashed=0;align=center;arcSize=4;whiteSpace=wrap;html=1;" vertex="1" parent="1">
          <mxGeometry x="320" y="255" width="155" height="180" as="geometry" />
        </mxCell>
        <mxCell id="m994420aG1mh06NTiCLv-36" value="id&amp;nbsp; &amp;nbsp; &amp;nbsp; &amp;nbsp; &amp;nbsp; &amp;nbsp; &amp;nbsp; &amp;nbsp; &amp;nbsp; &amp;nbsp; &amp;nbsp; PrimaryKey&lt;br&gt;state&amp;nbsp; &amp;nbsp; &amp;nbsp; &amp;nbsp; &amp;nbsp; &amp;nbsp; &amp;nbsp; &amp;nbsp; &amp;nbsp;Required&lt;br&gt;date_created&amp;nbsp; &amp;nbsp; Required&lt;br&gt;date_shipped&amp;nbsp; &amp;nbsp;Optional&lt;br&gt;date_delivered Optional&lt;br&gt;total_price&amp;nbsp; &amp;nbsp; &amp;nbsp; &amp;nbsp; Required&lt;br&gt;customer&amp;nbsp; &amp;nbsp; &amp;nbsp; &amp;nbsp; &amp;nbsp; Required&lt;br&gt;items&amp;nbsp; &amp;nbsp; &amp;nbsp; &amp;nbsp; &amp;nbsp; &amp;nbsp; &amp;nbsp; &amp;nbsp; Set" style="align=left;strokeColor=none;fillColor=none;spacingLeft=4;fontSize=12;verticalAlign=top;resizable=0;rotatable=0;part=1;html=1;" vertex="1" parent="m994420aG1mh06NTiCLv-35">
          <mxGeometry y="45" width="155" height="135" as="geometry" />
        </mxCell>
        <mxCell id="m994420aG1mh06NTiCLv-39" value="OrderItem" style="swimlane;childLayout=stackLayout;horizontal=1;startSize=25;horizontalStack=0;rounded=1;fontSize=14;fontStyle=0;strokeWidth=2;resizeParent=0;resizeLast=1;shadow=0;dashed=0;align=center;arcSize=4;whiteSpace=wrap;html=1;" vertex="1" parent="1">
          <mxGeometry x="540" y="285" width="160" height="120" as="geometry" />
        </mxCell>
        <mxCell id="m994420aG1mh06NTiCLv-40" value="id&amp;nbsp; &amp;nbsp; &amp;nbsp; &amp;nbsp; &amp;nbsp; &amp;nbsp; &amp;nbsp; &amp;nbsp; &amp;nbsp; &amp;nbsp; &amp;nbsp; &amp;nbsp; &amp;nbsp;Required&lt;br&gt;quantity&amp;nbsp; &amp;nbsp; &amp;nbsp; &amp;nbsp; &amp;nbsp; &amp;nbsp; &amp;nbsp; &amp;nbsp;Required&lt;br&gt;price&amp;nbsp; &amp;nbsp; &amp;nbsp; &amp;nbsp; &amp;nbsp; &amp;nbsp; &amp;nbsp; &amp;nbsp; &amp;nbsp; &amp;nbsp; Required&lt;br&gt;order&amp;nbsp; &amp;nbsp; &amp;nbsp; &amp;nbsp; &amp;nbsp; &amp;nbsp; &amp;nbsp; &amp;nbsp; &amp;nbsp;PrimaryKey&lt;br&gt;product&amp;nbsp; &amp;nbsp; &amp;nbsp; &amp;nbsp; &amp;nbsp; &amp;nbsp; &amp;nbsp; PrimaryKey" style="align=left;strokeColor=none;fillColor=none;spacingLeft=4;fontSize=12;verticalAlign=top;resizable=0;rotatable=0;part=1;html=1;" vertex="1" parent="m994420aG1mh06NTiCLv-39">
          <mxGeometry y="25" width="160" height="95" as="geometry" />
        </mxCell>
        <mxCell id="m994420aG1mh06NTiCLv-41" value="Product" style="swimlane;childLayout=stackLayout;horizontal=1;startSize=50;horizontalStack=0;rounded=1;fontSize=14;fontStyle=0;strokeWidth=2;resizeParent=0;resizeLast=1;shadow=0;dashed=0;align=center;arcSize=4;whiteSpace=wrap;html=1;" vertex="1" parent="1">
          <mxGeometry x="540" y="15" width="160" height="190" as="geometry" />
        </mxCell>
        <mxCell id="m994420aG1mh06NTiCLv-42" value="id&amp;nbsp; &amp;nbsp; &amp;nbsp; &amp;nbsp; &amp;nbsp; &amp;nbsp; &amp;nbsp; &amp;nbsp; &amp;nbsp; &amp;nbsp; &amp;nbsp;&amp;nbsp;PrimaryKey&lt;br&gt;name&amp;nbsp; &amp;nbsp; &amp;nbsp; &amp;nbsp; &amp;nbsp; &amp;nbsp; &amp;nbsp; &amp;nbsp; Required&lt;br&gt;categories&amp;nbsp; &amp;nbsp; &amp;nbsp; &amp;nbsp; &amp;nbsp;Set&lt;br&gt;description&amp;nbsp; &amp;nbsp; &amp;nbsp; &amp;nbsp; Optional&lt;br&gt;picture&amp;nbsp; &amp;nbsp; &amp;nbsp; &amp;nbsp; &amp;nbsp; &amp;nbsp; &amp;nbsp; &amp;nbsp;Optional&lt;br&gt;price&amp;nbsp; &amp;nbsp; &amp;nbsp; &amp;nbsp; &amp;nbsp; &amp;nbsp; &amp;nbsp; &amp;nbsp; &amp;nbsp; Required&lt;br&gt;quantity&amp;nbsp; &amp;nbsp; &amp;nbsp; &amp;nbsp; &amp;nbsp; &amp;nbsp; &amp;nbsp;Required&lt;br&gt;cart_items&amp;nbsp; &amp;nbsp; &amp;nbsp; &amp;nbsp; &amp;nbsp;Set&lt;br&gt;order_items&amp;nbsp; &amp;nbsp; &amp;nbsp; Set" style="align=left;strokeColor=none;fillColor=none;spacingLeft=4;fontSize=12;verticalAlign=top;resizable=0;rotatable=0;part=1;html=1;" vertex="1" parent="m994420aG1mh06NTiCLv-41">
          <mxGeometry y="50" width="160" height="140" as="geometry" />
        </mxCell>
        <mxCell id="m994420aG1mh06NTiCLv-46" value="" style="edgeStyle=entityRelationEdgeStyle;endArrow=ERzeroToMany;startArrow=ERone;endFill=1;startFill=0;exitX=0.999;exitY=0.44;exitDx=0;exitDy=0;entryX=0;entryY=0.25;entryDx=0;entryDy=0;exitPerimeter=0;" edge="1" parent="1" source="m994420aG1mh06NTiCLv-36" target="m994420aG1mh06NTiCLv-40">
          <mxGeometry width="100" height="100" relative="1" as="geometry">
            <mxPoint x="555" y="353.75" as="sourcePoint" />
            <mxPoint x="505" y="336.25" as="targetPoint" />
            <Array as="points">
              <mxPoint x="525" y="438.75" />
              <mxPoint x="525" y="398.75" />
            </Array>
          </mxGeometry>
        </mxCell>
        <mxCell id="m994420aG1mh06NTiCLv-47" value="" style="edgeStyle=entityRelationEdgeStyle;endArrow=ERzeroToMany;startArrow=ERone;endFill=1;startFill=0;entryX=1;entryY=0.5;entryDx=0;entryDy=0;exitX=1.032;exitY=0.833;exitDx=0;exitDy=0;exitPerimeter=0;" edge="1" parent="1" source="m994420aG1mh06NTiCLv-42" target="m994420aG1mh06NTiCLv-40">
          <mxGeometry width="100" height="100" relative="1" as="geometry">
            <mxPoint x="710" y="180" as="sourcePoint" />
            <mxPoint x="720" y="260" as="targetPoint" />
            <Array as="points">
              <mxPoint x="740" y="362.5" />
              <mxPoint x="740" y="322.5" />
            </Array>
          </mxGeometry>
        </mxCell>
        <mxCell id="m994420aG1mh06NTiCLv-49" value="" style="edgeStyle=entityRelationEdgeStyle;endArrow=ERzeroToMany;startArrow=ERone;endFill=1;startFill=0;exitX=1;exitY=0.75;exitDx=0;exitDy=0;entryX=0;entryY=0.75;entryDx=0;entryDy=0;" edge="1" parent="1" source="m994420aG1mh06NTiCLv-21" target="m994420aG1mh06NTiCLv-36">
          <mxGeometry width="100" height="100" relative="1" as="geometry">
            <mxPoint x="300" y="397.5" as="sourcePoint" />
            <mxPoint x="250" y="380" as="targetPoint" />
            <Array as="points">
              <mxPoint x="270" y="482.5" />
              <mxPoint x="270" y="442.5" />
            </Array>
          </mxGeometry>
        </mxCell>
        <mxCell id="m994420aG1mh06NTiCLv-50" value="" style="edgeStyle=entityRelationEdgeStyle;endArrow=ERzeroToMany;startArrow=ERone;endFill=1;startFill=0;exitX=1;exitY=0.5;exitDx=0;exitDy=0;entryX=0;entryY=0.5;entryDx=0;entryDy=0;" edge="1" parent="1" source="m994420aG1mh06NTiCLv-21" target="m994420aG1mh06NTiCLv-33">
          <mxGeometry width="100" height="100" relative="1" as="geometry">
            <mxPoint x="580" y="187.5" as="sourcePoint" />
            <mxPoint x="320" y="170" as="targetPoint" />
            <Array as="points">
              <mxPoint x="550" y="272.5" />
              <mxPoint x="550" y="232.5" />
            </Array>
          </mxGeometry>
        </mxCell>
        <mxCell id="m994420aG1mh06NTiCLv-51" value="Category" style="swimlane;childLayout=stackLayout;horizontal=1;startSize=30;horizontalStack=0;rounded=1;fontSize=14;fontStyle=0;strokeWidth=2;resizeParent=0;resizeLast=1;shadow=0;dashed=0;align=center;arcSize=4;whiteSpace=wrap;html=1;" vertex="1" parent="1">
          <mxGeometry x="720" y="135" width="130" height="85" as="geometry" />
        </mxCell>
        <mxCell id="m994420aG1mh06NTiCLv-52" value="id&amp;nbsp; &amp;nbsp; &amp;nbsp; &amp;nbsp; &amp;nbsp; &amp;nbsp; &amp;nbsp; &amp;nbsp; &amp;nbsp;Required&lt;br&gt;name&amp;nbsp; &amp;nbsp; &amp;nbsp; &amp;nbsp; &amp;nbsp; &amp;nbsp;Required&amp;nbsp; &amp;nbsp; &amp;nbsp;&amp;nbsp;&lt;br&gt;products&amp;nbsp; &amp;nbsp; &amp;nbsp; Set" style="align=left;strokeColor=none;fillColor=none;spacingLeft=4;fontSize=12;verticalAlign=top;resizable=0;rotatable=0;part=1;html=1;" vertex="1" parent="m994420aG1mh06NTiCLv-51">
          <mxGeometry y="30" width="130" height="55" as="geometry" />
        </mxCell>
        <mxCell id="m994420aG1mh06NTiCLv-53" value="" style="edgeStyle=entityRelationEdgeStyle;endArrow=ERzeroToMany;startArrow=ERone;endFill=1;startFill=0;exitX=1;exitY=0.5;exitDx=0;exitDy=0;entryX=0;entryY=0.25;entryDx=0;entryDy=0;" edge="1" parent="1" source="m994420aG1mh06NTiCLv-42" target="m994420aG1mh06NTiCLv-52">
          <mxGeometry width="100" height="100" relative="1" as="geometry">
            <mxPoint x="590" y="197.5" as="sourcePoint" />
            <mxPoint x="540" y="180" as="targetPoint" />
            <Array as="points">
              <mxPoint x="560" y="282.5" />
              <mxPoint x="560" y="242.5" />
            </Array>
          </mxGeometry>
        </mxCell>
        <mxCell id="m994420aG1mh06NTiCLv-54" value="" style="edgeStyle=entityRelationEdgeStyle;endArrow=ERzeroToMany;startArrow=ERone;endFill=1;startFill=0;entryX=1.005;entryY=0.631;entryDx=0;entryDy=0;entryPerimeter=0;exitX=-0.004;exitY=0.669;exitDx=0;exitDy=0;exitPerimeter=0;" edge="1" parent="1" source="m994420aG1mh06NTiCLv-42" target="m994420aG1mh06NTiCLv-33">
          <mxGeometry width="100" height="100" relative="1" as="geometry">
            <mxPoint x="510" y="60" as="sourcePoint" />
            <mxPoint x="490" y="130" as="targetPoint" />
            <Array as="points">
              <mxPoint x="510" y="232.5" />
              <mxPoint x="510" y="192.5" />
              <mxPoint x="510" y="210" />
            </Array>
          </mxGeometry>
        </mxCell>
        <mxCell id="m994420aG1mh06NTiCLv-32" value="CartItem" style="swimlane;childLayout=stackLayout;horizontal=1;startSize=50;horizontalStack=0;rounded=1;fontSize=14;fontStyle=0;strokeWidth=2;resizeParent=0;resizeLast=1;shadow=0;dashed=0;align=center;arcSize=4;whiteSpace=wrap;html=1;" vertex="1" parent="1">
          <mxGeometry x="317.5" y="60" width="160" height="120" as="geometry" />
        </mxCell>
        <mxCell id="m994420aG1mh06NTiCLv-33" value="id&amp;nbsp; &amp;nbsp; &amp;nbsp; &amp;nbsp; &amp;nbsp; &amp;nbsp; &amp;nbsp; &amp;nbsp; &amp;nbsp; &amp;nbsp; &amp;nbsp; &amp;nbsp; &amp;nbsp; Required&lt;br&gt;quantity&amp;nbsp; &amp;nbsp; &amp;nbsp; &amp;nbsp; &amp;nbsp; &amp;nbsp; &amp;nbsp; &amp;nbsp; Required&lt;br&gt;customer&amp;nbsp; &amp;nbsp; &amp;nbsp; &amp;nbsp; &amp;nbsp; &amp;nbsp; &amp;nbsp; Required&lt;br&gt;product&amp;nbsp; &amp;nbsp; &amp;nbsp; &amp;nbsp; &amp;nbsp; &amp;nbsp; &amp;nbsp; &amp;nbsp; &amp;nbsp;Required" style="align=left;strokeColor=none;fillColor=none;spacingLeft=4;fontSize=12;verticalAlign=top;resizable=0;rotatable=0;part=1;html=1;" vertex="1" parent="m994420aG1mh06NTiCLv-32">
          <mxGeometry y="50" width="160" height="70" as="geometry" />
        </mxCell>
      </root>
    </mxGraphModel>
  </diagram>
</mxfile>
